<svg xmlns="http://www.w3.org/2000/svg" viewBox="0 0 1280 720" width="1280" height="720">
  <rect width="1280" height="720" fill="#FFFFFF" />
  <rect x="0" y="0" width="1280" height="4" fill="#FFC000" />
  <path fill="#FFC000" fill-opacity="0.1" d="M74,30 H146 A14,14 0 0 1 160,44 V48 A14,14 0 0 1 146,62 H74 A14,14 0 0 1 60,48 V44 A14,14 0 0 1 74,30 Z" />
  <text x="110" y="52" font-family="'Microsoft YaHei', sans-serif" font-size="14" fill="#FFC000" font-weight="bold" text-anchor="middle">具身智能</text>
  <text x="190" y="54" font-family="'Microsoft YaHei', sans-serif" font-size="32" font-weight="bold" fill="#2D2D2D">场景与需求描述</text>
  <line x1="80" y1="78" x2="1200" y2="78" stroke="#E0E0E0" stroke-width="0.5" />
  <text x="80" y="120" font-family="'Microsoft YaHei', sans-serif" font-size="18" font-weight="bold" fill="#FFC000">场景描述</text>
  <path fill="#F5F7FA" stroke="#E0E0E0" stroke-width="0.5" d="M74,140 H1206 A14,14 0 0 1 1220,154 V361 A14,14 0 0 1 1206,375 H74 A14,14 0 0 1 60,361 V154 A14,14 0 0 1 74,140 Z" />
  <path fill="#FFC000" d="M91,162 H103 A6,6 0 0 1 109,168 V180 A6,6 0 0 1 103,186 H91 A6,6 0 0 1 85,180 V168 A6,6 0 0 1 91,162 Z" />
  <text x="100" y="180" font-family="'Microsoft YaHei', sans-serif" font-size="14" fill="#FFFFFF" text-anchor="middle" font-weight="bold">1</text>
  <text x="125" y="180" font-family="'Microsoft YaHei', sans-serif" font-size="16" fill="#2D2D2D">某服务机器人公司新产品搭载开源大模型做语音/NLP 交互，通过 MCP 协议调用外部 Skill 插件扩展能力</text>
  <path fill="#FFC000" d="M91,204 H103 A6,6 0 0 1 109,210 V222 A6,6 0 0 1 103,228 H91 A6,6 0 0 1 85,222 V210 A6,6 0 0 1 91,204 Z" />
  <text x="100" y="222" font-family="'Microsoft YaHei', sans-serif" font-size="14" fill="#FFFFFF" text-anchor="middle" font-weight="bold">2</text>
  <text x="125" y="222" font-family="'Microsoft YaHei', sans-serif" font-size="16" fill="#2D2D2D">底层运行 RTOS/Linux 嵌入式系统，集成激光雷达、IMU、深度相机等传感器驱动，大量依赖开源中间件</text>
  <path fill="#FFC000" d="M91,246 H103 A6,6 0 0 1 109,252 V264 A6,6 0 0 1 103,270 H91 A6,6 0 0 1 85,264 V252 A6,6 0 0 1 91,246 Z" />
  <text x="100" y="264" font-family="'Microsoft YaHei', sans-serif" font-size="14" fill="#FFFFFF" text-anchor="middle" font-weight="bold">3</text>
  <text x="125" y="264" font-family="'Microsoft YaHei', sans-serif" font-size="16" fill="#2D2D2D">CTO 最关心的三个字：AI 供应链——大模型哪里来的？MCP/Skill 依赖了哪些开源组件？固件有没有已知漏洞？</text>
  <path fill="#FFC000" d="M91,288 H103 A6,6 0 0 1 109,294 V306 A6,6 0 0 1 103,312 H91 A6,6 0 0 1 85,306 V294 A6,6 0 0 1 91,288 Z" />
  <text x="100" y="306" font-family="'Microsoft YaHei', sans-serif" font-size="14" fill="#FFFFFF" text-anchor="middle" font-weight="bold">4</text>
  <text x="125" y="306" font-family="'Microsoft YaHei', sans-serif" font-size="16" fill="#2D2D2D">信创+出海双重要求：国内需满足信创合规，海外需符合 EU CRA 等法规，SBOM 与许可证清单是刚需</text>
  <text x="80" y="410" font-family="'Microsoft YaHei', sans-serif" font-size="18" font-weight="bold" fill="#20A675">核心需求</text>
  <path fill="#F5F7FA" stroke="#E0E0E0" stroke-width="0.5" d="M70,430 H610 A10,10 0 0 1 620,440 V468 A10,10 0 0 1 610,478 H70 A10,10 0 0 1 60,468 V440 A10,10 0 0 1 70,430 Z" />
  <text x="90" y="460" font-family="'Microsoft YaHei', sans-serif" font-size="15" fill="#2D2D2D">AI 供应链透明化：大模型+MCP+Skill 全链路组件识别与风险评估</text>
  <path fill="#F5F7FA" stroke="#E0E0E0" stroke-width="0.5" d="M70,486 H610 A10,10 0 0 1 620,496 V524 A10,10 0 0 1 610,534 H70 A10,10 0 0 1 60,524 V496 A10,10 0 0 1 70,486 Z" />
  <text x="90" y="516" font-family="'Microsoft YaHei', sans-serif" font-size="15" fill="#2D2D2D">固件+传感器安全：嵌入式 RTOS 固件成分 + 传感器数据链路完整性</text>
  <path fill="#F5F7FA" stroke="#E0E0E0" stroke-width="0.5" d="M70,542 H610 A10,10 0 0 1 620,552 V580 A10,10 0 0 1 610,590 H70 A10,10 0 0 1 60,580 V552 A10,10 0 0 1 70,542 Z" />
  <text x="90" y="572" font-family="'Microsoft YaHei', sans-serif" font-size="15" fill="#2D2D2D">代码质量与规范：C/C++ 嵌入式代码满足 MISRA 等安全编码标准</text>
  <path fill="#F5F7FA" stroke="#E0E0E0" stroke-width="0.5" d="M650,430 H1210 A10,10 0 0 1 1220,440 V468 A10,10 0 0 1 1210,478 H650 A10,10 0 0 1 640,468 V440 A10,10 0 0 1 650,430 Z" />
  <text x="670" y="460" font-family="'Microsoft YaHei', sans-serif" font-size="15" fill="#2D2D2D">漏洞验证与修复：CVE 自动关联 + AI 辅助修复建议 + POC 验证</text>
  <path fill="#F5F7FA" stroke="#E0E0E0" stroke-width="0.5" d="M650,486 H1210 A10,10 0 0 1 1220,496 V524 A10,10 0 0 1 1210,534 H650 A10,10 0 0 1 640,524 V496 A10,10 0 0 1 650,486 Z" />
  <text x="670" y="516" font-family="'Microsoft YaHei', sans-serif" font-size="15" fill="#2D2D2D">SBOM + 合规出口：信创 + EU CRA 双重要求下的标准化 SBOM 与许可证报告</text>
  <path fill="#F5F7FA" stroke="#E0E0E0" stroke-width="0.5" d="M650,542 H1210 A10,10 0 0 1 1220,552 V580 A10,10 0 0 1 1210,590 H650 A10,10 0 0 1 640,580 V552 A10,10 0 0 1 650,542 Z" />
  <text x="670" y="572" font-family="'Microsoft YaHei', sans-serif" font-size="15" fill="#2D2D2D">大模型安全检测：模型供应链溯源 + Skill 安全评估 + 知识产权合规</text>
  <line x1="60" y1="650" x2="1200" y2="650" stroke="#E0E0E0" stroke-width="0.5" />
  <text x="60" y="690" font-family="'Microsoft YaHei', sans-serif" font-size="12" fill="#667580">软安科技 · IT制造培训</text>
  <text x="1200" y="690" font-family="'Microsoft YaHei', sans-serif" font-size="12" fill="#667580" text-anchor="end">07 / 14</text>
</svg>