<svg xmlns="http://www.w3.org/2000/svg" viewBox="0 0 1280 720" width="1280" height="720">
  <rect width="1280" height="720" fill="#FFFFFF"/>
  <rect x="0" y="0" width="1280" height="4" fill="#20A675"/>
  <text x="80" y="52" font-family="'Microsoft YaHei', sans-serif" font-size="32" font-weight="bold" fill="#2D2D2D">一页速查：行业×产品推荐矩阵</text>
  <line x1="80" y1="72" x2="1200" y2="72" stroke="#E0E0E0" stroke-width="0.5"/>
  <!-- Matrix table -->
  <!-- Header row -->
  <rect x="60" y="100" width="160" height="50" rx="8" fill="#20A675"/>
  <text x="140" y="132" font-family="'Microsoft YaHei', sans-serif" font-size="16" font-weight="bold" fill="#FFFFFF" text-anchor="middle">行业领域</text>
  <rect x="228" y="100" width="140" height="50" rx="8" fill="#F5F7FA"/>
  <text x="298" y="132" font-family="'Microsoft YaHei', sans-serif" font-size="15" font-weight="bold" fill="#2D2D2D" text-anchor="middle">SAST 静兮</text>
  <rect x="376" y="100" width="140" height="50" rx="8" fill="#F5F7FA"/>
  <text x="446" y="132" font-family="'Microsoft YaHei', sans-serif" font-size="15" font-weight="bold" fill="#2D2D2D" text-anchor="middle">SCA 源兮</text>
  <rect x="524" y="100" width="140" height="50" rx="8" fill="#F5F7FA"/>
  <text x="594" y="132" font-family="'Microsoft YaHei', sans-serif" font-size="15" font-weight="bold" fill="#2D2D2D" text-anchor="middle">BAT 固兮</text>
  <rect x="672" y="100" width="140" height="50" rx="8" fill="#F5F7FA"/>
  <text x="742" y="132" font-family="'Microsoft YaHei', sans-serif" font-size="15" font-weight="bold" fill="#2D2D2D" text-anchor="middle">FUZZ 侦兮</text>
  <rect x="820" y="100" width="140" height="50" rx="8" fill="#F5F7FA"/>
  <text x="890" y="132" font-family="'Microsoft YaHei', sans-serif" font-size="15" font-weight="bold" fill="#2D2D2D" text-anchor="middle">CodingHawk</text>
  <rect x="968" y="100" width="140" height="50" rx="8" fill="#F5F7FA"/>
  <text x="1038" y="132" font-family="'Microsoft YaHei', sans-serif" font-size="15" font-weight="bold" fill="#2D2D2D" text-anchor="middle">GuardFox</text>
  <!-- Row 1: 消费电子 -->
  <rect x="60" y="160" width="160" height="50" rx="8" fill="#20A675" fill-opacity="0.08"/>
  <text x="140" y="192" font-family="'Microsoft YaHei', sans-serif" font-size="16" font-weight="bold" fill="#20A675" text-anchor="middle">消费电子</text>
  <rect x="228" y="160" width="140" height="50" rx="8" fill="#FFFFFF" stroke="#E0E0E0" stroke-width="0.5"/>
  <text x="298" y="192" font-family="'Microsoft YaHei', sans-serif" font-size="14" fill="#20A675" text-anchor="middle" font-weight="bold">推荐</text>
  <rect x="376" y="160" width="140" height="50" rx="8" fill="#FFFFFF" stroke="#E0E0E0" stroke-width="0.5"/>
  <text x="446" y="192" font-family="'Microsoft YaHei', sans-serif" font-size="14" fill="#20A675" text-anchor="middle" font-weight="bold">推荐</text>
  <rect x="524" y="160" width="140" height="50" rx="8" fill="#FFFFFF" stroke="#E0E0E0" stroke-width="0.5"/>
  <text x="594" y="192" font-family="'Microsoft YaHei', sans-serif" font-size="14" fill="#20A675" text-anchor="middle" font-weight="bold">强推</text>
  <rect x="672" y="160" width="140" height="50" rx="8" fill="#FFFFFF" stroke="#E0E0E0" stroke-width="0.5"/>
  <text x="742" y="192" font-family="'Microsoft YaHei', sans-serif" font-size="14" fill="#20A675" text-anchor="middle" font-weight="bold">推荐</text>
  <rect x="820" y="160" width="140" height="50" rx="8" fill="#FFFFFF" stroke="#E0E0E0" stroke-width="0.5"/>
  <text x="890" y="192" font-family="'Microsoft YaHei', sans-serif" font-size="14" fill="#667580" text-anchor="middle">可选</text>
  <rect x="968" y="160" width="140" height="50" rx="8" fill="#FFFFFF" stroke="#E0E0E0" stroke-width="0.5"/>
  <text x="1038" y="192" font-family="'Microsoft YaHei', sans-serif" font-size="14" fill="#667580" text-anchor="middle">可选</text>
  <!-- Row 2: 网络安防设备 -->
  <rect x="60" y="218" width="160" height="50" rx="8" fill="#6096E6" fill-opacity="0.08"/>
  <text x="140" y="250" font-family="'Microsoft YaHei', sans-serif" font-size="16" font-weight="bold" fill="#6096E6" text-anchor="middle">网络安防设备</text>
  <rect x="228" y="218" width="140" height="50" rx="8" fill="#FFFFFF" stroke="#E0E0E0" stroke-width="0.5"/>
  <text x="298" y="250" font-family="'Microsoft YaHei', sans-serif" font-size="14" fill="#20A675" text-anchor="middle" font-weight="bold">推荐</text>
  <rect x="376" y="218" width="140" height="50" rx="8" fill="#FFFFFF" stroke="#E0E0E0" stroke-width="0.5"/>
  <text x="446" y="250" font-family="'Microsoft YaHei', sans-serif" font-size="14" fill="#667580" text-anchor="middle">可选</text>
  <rect x="524" y="218" width="140" height="50" rx="8" fill="#FFFFFF" stroke="#E0E0E0" stroke-width="0.5"/>
  <text x="594" y="250" font-family="'Microsoft YaHei', sans-serif" font-size="14" fill="#20A675" text-anchor="middle" font-weight="bold">强推</text>
  <rect x="672" y="218" width="140" height="50" rx="8" fill="#FFFFFF" stroke="#E0E0E0" stroke-width="0.5"/>
  <text x="742" y="250" font-family="'Microsoft YaHei', sans-serif" font-size="14" fill="#20A675" text-anchor="middle" font-weight="bold">强推</text>
  <rect x="820" y="218" width="140" height="50" rx="8" fill="#FFFFFF" stroke="#E0E0E0" stroke-width="0.5"/>
  <text x="890" y="250" font-family="'Microsoft YaHei', sans-serif" font-size="14" fill="#667580" text-anchor="middle">可选</text>
  <rect x="968" y="218" width="140" height="50" rx="8" fill="#FFFFFF" stroke="#E0E0E0" stroke-width="0.5"/>
  <text x="1038" y="250" font-family="'Microsoft YaHei', sans-serif" font-size="14" fill="#20A675" text-anchor="middle" font-weight="bold">推荐</text>
  <!-- Row 3: 具身智能 -->
  <rect x="60" y="276" width="160" height="50" rx="8" fill="#FFC000" fill-opacity="0.08"/>
  <text x="140" y="308" font-family="'Microsoft YaHei', sans-serif" font-size="16" font-weight="bold" fill="#FFC000" text-anchor="middle">具身智能</text>
  <rect x="228" y="276" width="140" height="50" rx="8" fill="#FFFFFF" stroke="#E0E0E0" stroke-width="0.5"/>
  <text x="298" y="308" font-family="'Microsoft YaHei', sans-serif" font-size="14" fill="#20A675" text-anchor="middle" font-weight="bold">推荐</text>
  <rect x="376" y="276" width="140" height="50" rx="8" fill="#FFFFFF" stroke="#E0E0E0" stroke-width="0.5"/>
  <text x="446" y="308" font-family="'Microsoft YaHei', sans-serif" font-size="14" fill="#20A675" text-anchor="middle" font-weight="bold">强推</text>
  <rect x="524" y="276" width="140" height="50" rx="8" fill="#FFFFFF" stroke="#E0E0E0" stroke-width="0.5"/>
  <text x="594" y="308" font-family="'Microsoft YaHei', sans-serif" font-size="14" fill="#20A675" text-anchor="middle" font-weight="bold">推荐</text>
  <rect x="672" y="276" width="140" height="50" rx="8" fill="#FFFFFF" stroke="#E0E0E0" stroke-width="0.5"/>
  <text x="742" y="308" font-family="'Microsoft YaHei', sans-serif" font-size="14" fill="#667580" text-anchor="middle">可选</text>
  <rect x="820" y="276" width="140" height="50" rx="8" fill="#FFFFFF" stroke="#E0E0E0" stroke-width="0.5"/>
  <text x="890" y="308" font-family="'Microsoft YaHei', sans-serif" font-size="14" fill="#667580" text-anchor="middle">可选</text>
  <rect x="968" y="276" width="140" height="50" rx="8" fill="#FFFFFF" stroke="#E0E0E0" stroke-width="0.5"/>
  <text x="1038" y="308" font-family="'Microsoft YaHei', sans-serif" font-size="14" fill="#20A675" text-anchor="middle" font-weight="bold">推荐</text>
  <!-- Legend -->
  <rect x="60" y="350" width="18" height="18" rx="4" fill="#20A675"/>
  <text x="85" y="364" font-family="'Microsoft YaHei', sans-serif" font-size="14" fill="#667580">强推/推荐</text>
  <rect x="200" y="350" width="18" height="18" rx="4" fill="#FFFFFF" stroke="#E0E0E0" stroke-width="0.5"/>
  <text x="225" y="364" font-family="'Microsoft YaHei', sans-serif" font-size="14" fill="#667580">可选</text>
  <!-- Bottom: Test services table -->
  <text x="80" y="420" font-family="'Microsoft YaHei', sans-serif" font-size="18" font-weight="bold" fill="#2D2D2D">测试服务（全10项适用所有行业）</text>
  <rect x="60" y="445" width="1160" height="85" rx="14" fill="#F5F7FA" stroke="#E0E0E0" stroke-width="0.5"/>
  <text x="100" y="480" font-family="'Microsoft YaHei', sans-serif" font-size="15" fill="#2D2D2D">安全测试（6项）：</text>
  <text x="280" y="480" font-family="'Microsoft YaHei', sans-serif" font-size="14" fill="#667580">固件安全测试 · Fuzz模糊测试 · 渗透测试 · 代码审计测试 · 开源许可测试 · SBOM分析测试 · 大模型安全检测</text>
  <text x="100" y="510" font-family="'Microsoft YaHei', sans-serif" font-size="15" fill="#2D2D2D">审计咨询（4项）：</text>
  <text x="280" y="510" font-family="'Microsoft YaHei', sans-serif" font-size="14" fill="#667580">开源许可咨询 · 编码规范咨询 · 研发安全生命周期(SDLC)服务 · 大模型安全检测咨询</text>
  <line x1="60" y1="640" x2="1200" y2="640" stroke="#E0E0E0" stroke-width="0.5"/>
  <text x="60" y="680" font-family="'Microsoft YaHei', sans-serif" font-size="12" fill="#667580">软安科技 · IT制造培训</text>
  <text x="1200" y="680" font-family="'Microsoft YaHei', sans-serif" font-size="12" fill="#667580" text-anchor="end">06 / 14</text>
</svg>