<svg xmlns="http://www.w3.org/2000/svg" viewBox="0 0 1280 720" width="1280" height="720">
  <defs>
    <linearGradient id="bgGrad" x1="0%" y1="0%" x2="100%" y2="100%">
      <stop offset="0%" stop-color="#FFFFFF" />
      <stop offset="100%" stop-color="#F5F7FA" />
    </linearGradient>
    <linearGradient id="accentGrad" x1="0%" y1="0%" x2="100%" y2="0%">
      <stop offset="0%" stop-color="#20A675" />
      <stop offset="100%" stop-color="#6096E6" />
    </linearGradient>
  </defs>
  <rect width="1280" height="720" fill="url(#bgGrad)" />
  
  <text x="640" y="180" font-family="SimHei, 'Microsoft YaHei', sans-serif" font-size="44" font-weight="bold" fill="#2D2D2D" text-anchor="middle">软安SCA——为厦门税务构建</text>
  <text x="640" y="240" font-family="SimHei, 'Microsoft YaHei', sans-serif" font-size="44" font-weight="bold" fill="url(#accentGrad)" text-anchor="middle">AI时代的软件供应链安全防线</text>
  <rect x="400" y="270" width="480" height="2" fill="#20A675" />
  <text x="640" y="315" font-family="SimSun, 'Times New Roman', serif" font-size="20" fill="#445469" text-anchor="middle">全场景覆盖 · 领先检测技术 · 深度漏洞分析 · 实时预警盘点 · 无缝嵌入</text>
  
  <g transform="translate(130, 370)">
    <path fill="#FFFFFF" stroke="#E0E0E0" stroke-width="0.5" d="M4,0 H176 A4,4 0 0 1 180,4 V126 A4,4 0 0 1 176,130 H4 A4,4 0 0 1 0,126 V4 A4,4 0 0 1 4,0 Z" />
    <text x="90" y="52" font-family="SimHei, 'Microsoft YaHei', sans-serif" font-size="36" font-weight="bold" fill="#20A675" text-anchor="middle">AI全覆盖</text>
    <text x="90" y="80" font-family="SimSun, 'Times New Roman', serif" font-size="14" fill="#445469" text-anchor="middle">大模型/MCP/Skill</text>
    <text x="90" y="102" font-family="SimSun, 'Times New Roman', serif" font-size="14" fill="#445469" text-anchor="middle">+传统组件统一平台</text>
  </g>
  <g transform="translate(330, 370)">
    <path fill="#FFFFFF" stroke="#E0E0E0" stroke-width="0.5" d="M4,0 H176 A4,4 0 0 1 180,4 V126 A4,4 0 0 1 176,130 H4 A4,4 0 0 1 0,126 V4 A4,4 0 0 1 4,0 Z" />
    <text x="90" y="52" font-family="SimHei, 'Microsoft YaHei', sans-serif" font-size="36" font-weight="bold" fill="#6096E6" text-anchor="middle">技术领先</text>
    <text x="90" y="80" font-family="SimSun, 'Times New Roman', serif" font-size="14" fill="#445469" text-anchor="middle">100T+知识库</text>
    <text x="90" y="102" font-family="SimSun, 'Times New Roman', serif" font-size="14" fill="#445469" text-anchor="middle">Java 0%误报 业界标杆</text>
  </g>
  <g transform="translate(530, 370)">
    <path fill="#FFFFFF" stroke="#E0E0E0" stroke-width="0.5" d="M4,0 H176 A4,4 0 0 1 180,4 V126 A4,4 0 0 1 176,130 H4 A4,4 0 0 1 0,126 V4 A4,4 0 0 1 4,0 Z" />
    <text x="90" y="52" font-family="SimHei, 'Microsoft YaHei', sans-serif" font-size="36" font-weight="bold" fill="#FFC000" text-anchor="middle">漏洞闭环</text>
    <text x="90" y="80" font-family="SimSun, 'Times New Roman', serif" font-size="14" fill="#445469" text-anchor="middle">发现→分析→修复</text>
    <text x="90" y="102" font-family="SimSun, 'Times New Roman', serif" font-size="14" fill="#445469" text-anchor="middle">→验证全流程自动化</text>
  </g>
  <g transform="translate(730, 370)">
    <path fill="#FFFFFF" stroke="#E0E0E0" stroke-width="0.5" d="M4,0 H176 A4,4 0 0 1 180,4 V126 A4,4 0 0 1 176,130 H4 A4,4 0 0 1 0,126 V4 A4,4 0 0 1 4,0 Z" />
    <text x="90" y="52" font-family="SimHei, 'Microsoft YaHei', sans-serif" font-size="36" font-weight="bold" fill="#51BA94" text-anchor="middle">主动防御</text>
    <text x="90" y="80" font-family="SimSun, 'Times New Roman', serif" font-size="14" fill="#445469" text-anchor="middle">实时预警+秒级盘点</text>
    <text x="90" y="102" font-family="SimSun, 'Times New Roman', serif" font-size="14" fill="#445469" text-anchor="middle">先于攻击者行动</text>
  </g>
  <g transform="translate(930, 370)">
    <path fill="#FFFFFF" stroke="#E0E0E0" stroke-width="0.5" d="M4,0 H176 A4,4 0 0 1 180,4 V126 A4,4 0 0 1 176,130 H4 A4,4 0 0 1 0,126 V4 A4,4 0 0 1 4,0 Z" />
    <text x="90" y="52" font-family="SimHei, 'Microsoft YaHei', sans-serif" font-size="36" font-weight="bold" fill="#20A675" text-anchor="middle">无缝嵌入</text>
    <text x="90" y="80" font-family="SimSun, 'Times New Roman', serif" font-size="14" fill="#445469" text-anchor="middle">MCP+API+定制</text>
    <text x="90" y="102" font-family="SimSun, 'Times New Roman', serif" font-size="14" fill="#445469" text-anchor="middle">融入现有开发体系</text>
  </g>
  
  <text x="640" y="580" font-family="SimHei, 'Microsoft YaHei', sans-serif" font-size="28" font-weight="bold" fill="#2D2D2D" text-anchor="middle">五位一体，守护厦门税务软件供应链安全</text>
  <line x1="60" y1="640" x2="1200" y2="640" stroke="#E0E0E0" stroke-width="0.5" />
  <text x="60" y="680" font-family="'Microsoft YaHei', sans-serif" font-size="12" fill="#8F8F8F">软安科技 · 厦门税务SCA方案</text>
  <text x="1200" y="680" font-family="'Microsoft YaHei', sans-serif" font-size="12" fill="#8F8F8F" text-anchor="end">11 / 12</text>
</svg>