<svg xmlns="http://www.w3.org/2000/svg" viewBox="0 0 1280 720" width="1280" height="720">
  <rect width="1280" height="720" fill="#FFFFFF"/>
  <rect x="0" y="0" width="1280" height="4" fill="#20A675"/>
  <text x="80" y="52" font-family="'Microsoft YaHei', sans-serif" font-size="32" font-weight="bold" fill="#2D2D2D">IT制造行业：三大细分领域</text>
  <line x1="80" y1="72" x2="1200" y2="72" stroke="#E0E0E0" stroke-width="0.5"/>
  <!-- Card 1: 消费电子 -->
  <rect x="40" y="100" width="385" height="510" rx="14" fill="#FFFFFF" stroke="#E0E0E0" stroke-width="0.5"/>
  <rect x="40" y="100" width="385" height="180" rx="14" fill="#E0E0E0"/>
  <image x="40" y="100" width="385" height="180" href="../images/p02_consumer.png" preserveAspectRatio="xMidYMid slice"/>
  <text x="232" y="310" font-family="'Microsoft YaHei', sans-serif" font-size="24" font-weight="bold" fill="#20A675" text-anchor="middle">消费电子</text>
  <text x="70" y="350" font-family="'Microsoft YaHei', sans-serif" font-size="15" font-weight="bold" fill="#2D2D2D">代表产品</text>
  <text x="70" y="378" font-family="'Microsoft YaHei', sans-serif" font-size="14" fill="#667580">智能手机 / 平板 / 智能手表</text>
  <text x="70" y="400" font-family="'Microsoft YaHei', sans-serif" font-size="14" fill="#667580">TWS耳机 / 智能家居终端</text>
  <line x1="70" y1="422" x2="395" y2="422" stroke="#E0E0E0" stroke-width="0.5"/>
  <text x="70" y="450" font-family="'Microsoft YaHei', sans-serif" font-size="15" font-weight="bold" fill="#2D2D2D">核心安全诉求</text>
  <text x="70" y="478" font-family="'Microsoft YaHei', sans-serif" font-size="14" fill="#667580">固件安全 / 开源组件合规</text>
  <text x="70" y="500" font-family="'Microsoft YaHei', sans-serif" font-size="14" fill="#667580">无线协议 (BT/WiFi) 安全</text>
  <text x="70" y="522" font-family="'Microsoft YaHei', sans-serif" font-size="14" fill="#667580">供应链第三方组件透明化</text>
  <rect x="70" y="555" width="130" height="28" rx="12" fill="#20A675" fill-opacity="0.1"/>
  <text x="135" y="574" font-family="'Microsoft YaHei', sans-serif" font-size="13" fill="#20A675" text-anchor="middle" font-weight="bold">推：BAT+SCA+FUZZ</text>
  <!-- Card 2: 网络安防设备 -->
  <rect x="448" y="100" width="385" height="510" rx="14" fill="#FFFFFF" stroke="#E0E0E0" stroke-width="0.5"/>
  <rect x="448" y="100" width="385" height="180" rx="14" fill="#E0E0E0"/>
  <image x="448" y="100" width="385" height="180" href="../images/p02_network.png" preserveAspectRatio="xMidYMid slice"/>
  <text x="640" y="310" font-family="'Microsoft YaHei', sans-serif" font-size="24" font-weight="bold" fill="#6096E6" text-anchor="middle">网络安防设备</text>
  <text x="478" y="350" font-family="'Microsoft YaHei', sans-serif" font-size="15" font-weight="bold" fill="#2D2D2D">代表产品</text>
  <text x="478" y="378" font-family="'Microsoft YaHei', sans-serif" font-size="14" fill="#667580">安防摄像头 / 交换机 / 路由器</text>
  <text x="478" y="400" font-family="'Microsoft YaHei', sans-serif" font-size="14" fill="#667580">防火墙 / 工业网关</text>
  <line x1="478" y1="422" x2="803" y2="422" stroke="#E0E0E0" stroke-width="0.5"/>
  <text x="478" y="450" font-family="'Microsoft YaHei', sans-serif" font-size="15" font-weight="bold" fill="#2D2D2D">核心安全诉求</text>
  <text x="478" y="478" font-family="'Microsoft YaHei', sans-serif" font-size="14" fill="#667580">设备固件防篡改</text>
  <text x="478" y="500" font-family="'Microsoft YaHei', sans-serif" font-size="14" fill="#667580">通信协议 (TCP/IP/Modbus) 健壮性</text>
  <text x="478" y="522" font-family="'Microsoft YaHei', sans-serif" font-size="14" fill="#667580">二进制交付物成分透明</text>
  <rect x="478" y="555" width="130" height="28" rx="12" fill="#6096E6" fill-opacity="0.1"/>
  <text x="543" y="574" font-family="'Microsoft YaHei', sans-serif" font-size="13" fill="#6096E6" text-anchor="middle" font-weight="bold">推：BAT+FUZZ+GuardFox</text>
  <!-- Card 3: 具身智能 -->
  <rect x="855" y="100" width="385" height="510" rx="14" fill="#FFFFFF" stroke="#E0E0E0" stroke-width="0.5"/>
  <rect x="855" y="100" width="385" height="180" rx="14" fill="#E0E0E0"/>
  <image x="855" y="100" width="385" height="180" href="../images/p02_robot.png" preserveAspectRatio="xMidYMid slice"/>
  <text x="1047" y="310" font-family="'Microsoft YaHei', sans-serif" font-size="24" font-weight="bold" fill="#FFC000" text-anchor="middle">具身智能</text>
  <text x="885" y="350" font-family="'Microsoft YaHei', sans-serif" font-size="15" font-weight="bold" fill="#2D2D2D">代表产品</text>
  <text x="885" y="378" font-family="'Microsoft YaHei', sans-serif" font-size="14" fill="#667580">服务机器人 / 工业机器人</text>
  <text x="885" y="400" font-family="'Microsoft YaHei', sans-serif" font-size="14" fill="#667580">无人系统 / 智能传感器</text>
  <line x1="885" y1="422" x2="1210" y2="422" stroke="#E0E0E0" stroke-width="0.5"/>
  <text x="885" y="450" font-family="'Microsoft YaHei', sans-serif" font-size="15" font-weight="bold" fill="#2D2D2D">核心安全诉求</text>
  <text x="885" y="478" font-family="'Microsoft YaHei', sans-serif" font-size="14" fill="#667580">AI模型+固件双重安全</text>
  <text x="885" y="500" font-family="'Microsoft YaHei', sans-serif" font-size="14" fill="#667580">传感器数据完整性与实时OS</text>
  <text x="885" y="522" font-family="'Microsoft YaHei', sans-serif" font-size="14" fill="#667580">开源大模型/MCP供应链风险</text>
  <rect x="885" y="555" width="130" height="28" rx="12" fill="#FFC000" fill-opacity="0.1"/>
  <text x="950" y="574" font-family="'Microsoft YaHei', sans-serif" font-size="13" fill="#FFC000" text-anchor="middle" font-weight="bold">推：SCA+SAST+BAT</text>
  <line x1="40" y1="650" x2="1240" y2="650" stroke="#E0E0E0" stroke-width="0.5"/>
  <text x="40" y="690" font-family="'Microsoft YaHei', sans-serif" font-size="12" fill="#667580">软安科技 · IT制造培训</text>
  <text x="1240" y="690" font-family="'Microsoft YaHei', sans-serif" font-size="12" fill="#667580" text-anchor="end">02 / 14</text>
</svg>